<?xml version="1.0" encoding="UTF-8"?> <svg xmlns="http://www.w3.org/2000/svg" id="Layer_1" data-name="Layer 1" viewBox="0 0 472.54 92.1"><defs><style>.cls-1,.cls-2,.cls-3{fill:#fff;}.cls-2,.cls-3{fill-rule:evenodd;}.cls-2{opacity:0.63;}</style></defs><path class="cls-1" d="M173,68.62l-1.62,1.49a26.5,26.5,0,0,1-18,6.93c-14.5,0-26.24-11.39-26.24-25.53s11.74-25.46,26.24-25.46a26,26,0,0,1,19,7.92l-6.23,6.37a17.59,17.59,0,0,0-12.79-5.23,16.44,16.44,0,0,0,0,32.88,19.74,19.74,0,0,0,13-5.24Z" transform="translate(0 -5.01)"></path><path class="cls-1" d="M179.81,27.19h10l-.07,49.21h-10Z" transform="translate(0 -5.01)"></path><path class="cls-1" d="M215.44,42.39c9.76,0,17.75,7.85,17.75,17.25a17.78,17.78,0,0,1-35.56,0C197.63,50.24,205.62,42.39,215.44,42.39Zm-8.27,17.32a8.26,8.26,0,1,0,8.27-8.77A8.48,8.48,0,0,0,207.17,59.71Z" transform="translate(0 -5.01)"></path><path class="cls-1" d="M262.6,43h9.9V59.78c0,6.44-1.27,9.9-4.66,13.23-2.9,2.89-6.37,4.17-11.46,4.17S247.83,75.9,244.93,73c-3.4-3.33-4.67-6.79-4.67-13.23V43h9.9V59.5c0,5.16,1.49,8.7,6.22,8.7s6.22-3.54,6.22-8.7Z" transform="translate(0 -5.01)"></path><path class="cls-1" d="M305.17,44V27.12h10l.07,49.28h-10V74.28a12,12,0,0,1-7.14,2.54A17.59,17.59,0,0,1,280.28,59.5c0-9.4,8.06-17.25,17.82-17.25A13.65,13.65,0,0,1,305.17,44ZM305,55.12a7.46,7.46,0,0,0-6.86-4.18,8.57,8.57,0,0,0,0,17.12A7.57,7.57,0,0,0,305,64Z" transform="translate(0 -5.01)"></path><path class="cls-1" d="M326.24,76.4V27.19H340c14.77,0,26.16,10.74,26.16,24.6S354.73,76.4,339.81,76.4Zm9.83-8.84h3.67c10.19,0,16.62-6.08,16.62-15.77S349.93,36,340.1,36h-4Z" transform="translate(0 -5.01)"></path><path class="cls-1" d="M403.52,70C400.69,73.57,394.26,77,388.6,77a17.61,17.61,0,0,1-17.82-17.4c0-9.4,8.06-17.25,17.82-17.25,10.11,0,17.18,7.85,16.83,19.44l-24.89-.07a8.23,8.23,0,0,0,8.06,6.65,10.26,10.26,0,0,0,7.92-4.17Zm-8-15.06a8.14,8.14,0,0,0-7.5-4.38,7.81,7.81,0,0,0-7,4.38Z" transform="translate(0 -5.01)"></path><path class="cls-1" d="M419.22,43.24l7.35,19.09,7.35-19.09h10.61L430.25,76.4h-7.36L408.61,43.24Z" transform="translate(0 -5.01)"></path><path class="cls-1" d="M453.51,65.23c1.34,2.19,3.53,4.24,6.29,4.24,1.41,0,2.76-.64,3-2.12.35-2-3.32-3.75-5.37-5.23-2.76-1.91-5.45-3.75-6.65-5.66a8.3,8.3,0,0,1,.71-10,12.51,12.51,0,0,1,9.47-4c5,0,9.12,2.26,10.75,4.45L466,52.85c-1.06-1.48-2.26-2.83-3.89-2.83a2.22,2.22,0,0,0-2.33,2.06c0,1.13.57,1.9,2.47,3.11,3.54,2.4,8.06,5.3,9.41,8.2A8.65,8.65,0,0,1,472.1,70c-1.34,4-6.29,7.21-11.8,7.21s-10.4-2.19-13.16-6.08Z" transform="translate(0 -5.01)"></path><path class="cls-2" d="M58.23,74.67,35.49,51.92l-2.71,2.71C21.93,65.48,24.2,83.81,34.63,94.24l2,2L58.23,74.67Z" transform="translate(0 -5.01)"></path><path class="cls-3" d="M33.37,5,8.91,29.47a30.61,30.61,0,0,0,0,43.18L30.5,94.24a30.61,30.61,0,0,1,0-43.18L76.55,5Z" transform="translate(0 -5.01)"></path><path class="cls-2" d="M60,27.46,82.7,50.2l3.08-3.08C96.37,36.53,93.64,18,83.55,7.88l-2-2L60,27.46Z" transform="translate(0 -5.01)"></path><path class="cls-3" d="M84.82,97.11l24.46-24.46a30.63,30.63,0,0,0,0-43.18L87.69,7.88a30.63,30.63,0,0,1,0,43.18l-46,46.05Z" transform="translate(0 -5.01)"></path></svg> 