<svg xmlns="http://www.w3.org/2000/svg" width="27.14" height="30" viewBox="0 0 27.14 30">
  <path id="Path_6879" data-name="Path 6879" d="M625.492-88.3a1.617,1.617,0,0,1,1.565,0c2.394,1.346,9.608,5.394,12,6.739a1.517,1.517,0,0,1,.783,1.32v13.478a1.516,1.516,0,0,1-.783,1.319l-12,6.739a1.617,1.617,0,0,1-1.565,0l-12-6.739a1.515,1.515,0,0,1-.783-1.319V-80.237a1.517,1.517,0,0,1,.783-1.32C615.882-82.9,623.1-86.951,625.492-88.3Zm.784,19.8a5,5,0,0,1-5-5,5,5,0,0,1,5-5,4.993,4.993,0,0,1,4.264,2.4l4.338-2.48a9.988,9.988,0,0,0-8.6-4.918,10.006,10.006,0,0,0-10,10,10,10,0,0,0,10,10,9.99,9.99,0,0,0,8.688-5.06l-4.38-2.411A4.994,4.994,0,0,1,626.276-68.5Z" transform="translate(-612.705 88.499)" fill="#dbe3fd" fill-rule="evenodd"/>
</svg>
