<svg xmlns="http://www.w3.org/2000/svg" width="29.684" height="30" viewBox="0 0 29.684 30">
  <g id="Python" transform="translate(-1482.931 -304.836)">
    <path id="path1948" d="M1497.638,304.836a20.523,20.523,0,0,0-3.431.293c-3.038.536-3.59,1.659-3.59,3.731V311.6h7.18v.912h-9.875a4.482,4.482,0,0,0-4.485,3.639,13.4,13.4,0,0,0,0,7.295c.51,2.125,1.729,3.639,3.816,3.639h2.469V323.8a4.562,4.562,0,0,1,4.486-4.459h7.172a3.617,3.617,0,0,0,3.59-3.648V308.86a4.007,4.007,0,0,0-3.59-3.731A22.37,22.37,0,0,0,1497.638,304.836Zm-3.883,2.2a1.368,1.368,0,1,1-1.347,1.372A1.362,1.362,0,0,1,1493.755,307.036Z" fill="#dbe3fd"/>
    <path id="path1950" d="M1509.926,316.565v3.187a4.6,4.6,0,0,1-4.486,4.551h-7.172a3.662,3.662,0,0,0-3.59,3.647v6.835c0,1.945,1.692,3.09,3.59,3.648a12.019,12.019,0,0,0,7.172,0c1.808-.523,3.59-1.576,3.59-3.648V332.05h-7.172v-.912h10.762c2.087,0,2.865-1.455,3.591-3.639a12.317,12.317,0,0,0,0-7.295c-.516-2.077-1.5-3.639-3.591-3.639Zm-4.034,17.309a1.368,1.368,0,1,1-1.347,1.364A1.355,1.355,0,0,1,1505.892,333.874Z" transform="translate(-4.147 -4.145)" fill="#dbe3fd"/>
  </g>
</svg>
