<svg xmlns="http://www.w3.org/2000/svg" width="54.998" height="20.001" viewBox="0 0 54.998 20.001">
  <g id="Group_4598" data-name="Group 4598" transform="translate(-24.744 -77.987)">
    <g id="Group_4587" data-name="Group 4587" transform="translate(28.796 83.03)">
      <g id="Group_4586" data-name="Group 4586">
        <g id="Group_4585" data-name="Group 4585">
          <path id="Path_6945" data-name="Path 6945" d="M39.883,98.356c-.1,0-.131-.064-.069-.142l.563-.718a.423.423,0,0,1,.293-.143l9.629,0c.1,0,.137.069.083.153l-.448.7a.37.37,0,0,1-.279.153Z" transform="translate(-39.782 -97.348)" fill="#dbe3fd"/>
        </g>
      </g>
    </g>
    <g id="Group_4590" data-name="Group 4590" transform="translate(24.744 85.421)">
      <g id="Group_4589" data-name="Group 4589" transform="translate(0 0)">
        <g id="Group_4588" data-name="Group 4588">
          <path id="Path_6946" data-name="Path 6946" d="M24.845,107.539c-.1,0-.131-.064-.07-.143l.563-.718a.422.422,0,0,1,.293-.143l12.3-.009a.123.123,0,0,1,.124.172l-.218.66a.268.268,0,0,1-.238.172Z" transform="translate(-24.744 -106.527)" fill="#dbe3fd"/>
        </g>
      </g>
    </g>
    <g id="Group_4593" data-name="Group 4593" transform="translate(31.26 87.815)">
      <g id="Group_4592" data-name="Group 4592" transform="translate(0 0)">
        <g id="Group_4591" data-name="Group 4591">
          <path id="Path_6947" data-name="Path 6947" d="M49.041,116.729c-.1,0-.141-.071-.093-.158l.383-.687a.341.341,0,0,1,.269-.158l5.4,0a.162.162,0,0,1,.164.18l-.061.643a.2.2,0,0,1-.2.181Z" transform="translate(-48.928 -115.721)" fill="#dbe3fd"/>
        </g>
      </g>
    </g>
    <g id="Group_4597" data-name="Group 4597" transform="translate(39.493 77.988)">
      <g id="CXHf1q" transform="translate(0)">
        <g id="Group_4596" data-name="Group 4596">
          <g id="Group_4594" data-name="Group 4594">
            <path id="Path_6948" data-name="Path 6948" d="M99.325,83.553c-1.692.4-2.856.742-4.52,1.147-.411.1-.442.137-.788-.251a3.529,3.529,0,0,0-1.264-.991,4.786,4.786,0,0,0-4.865.381,5.543,5.543,0,0,0-2.756,4.968,4.142,4.142,0,0,0,3.641,4.1A5.071,5.071,0,0,0,93.36,91.2c.256-.277.463-.6.738-.955H88.9c-.562,0-.694-.333-.5-.783.34-.8,1-2.174,1.374-2.848a.74.74,0,0,1,.662-.428h9.813c-.048.708-.047,1.419-.153,2.114a10.875,10.875,0,0,1-2.21,5.125,11.2,11.2,0,0,1-7.67,4.427,9.762,9.762,0,0,1-7.235-1.733,8.172,8.172,0,0,1-3.425-5.787,9.986,9.986,0,0,1,2.281-7.642,11.993,11.993,0,0,1,7.547-4.508,9.62,9.62,0,0,1,7.132,1.269,8.33,8.33,0,0,1,3.121,3.688C99.738,83.35,99.629,83.48,99.325,83.553Z" transform="translate(-79.482 -77.988)" fill="#dbe3fd"/>
          </g>
          <g id="Group_4595" data-name="Group 4595" transform="translate(18.815 0.216)">
            <path id="Path_6949" data-name="Path 6949" d="M160.113,98.572a10.2,10.2,0,0,1-6.564-2.3,8.12,8.12,0,0,1-2.91-5.036,9.741,9.741,0,0,1,2.2-7.88A11.449,11.449,0,0,1,160.37,79a10.2,10.2,0,0,1,7.67,1.343,8.024,8.024,0,0,1,3.793,5.808,9.879,9.879,0,0,1-3.1,8.846,12.329,12.329,0,0,1-6.465,3.333C161.561,98.464,160.832,98.494,160.113,98.572Zm6.428-10.545c-.029-.34-.029-.607-.078-.866a4.455,4.455,0,0,0-5.5-3.477,5.751,5.751,0,0,0-4.71,4.534,4.256,4.256,0,0,0,2.471,4.924,5.073,5.073,0,0,0,4.4-.159A5.656,5.656,0,0,0,166.541,88.027Z" transform="translate(-150.505 -78.787)" fill="#dbe3fd"/>
          </g>
        </g>
      </g>
    </g>
  </g>
</svg>
