<svg xmlns="http://www.w3.org/2000/svg" width="30.001" height="30" viewBox="0 0 30.001 30">
  <path id="Exclusion_2" data-name="Exclusion 2" d="M-9264,30h-30V0h30V30Zm-7.989-4.525h0l-2.283,1.322a.351.351,0,0,1,.016.034l.006.012a.648.648,0,0,0,.042.085,4.778,4.778,0,0,0,1.873,1.946,6.309,6.309,0,0,0,3.095.821,7.2,7.2,0,0,0,2.223-.37,3.568,3.568,0,0,0,2.066-1.658,3.959,3.959,0,0,0,.465-2.186,3.7,3.7,0,0,0-1.416-2.852,9.745,9.745,0,0,0-2.173-1.235l-.437-.192c-.366-.159-.741-.323-1.107-.5a3.006,3.006,0,0,1-.7-.487,1.253,1.253,0,0,1-.307-1.16,1.151,1.151,0,0,1,.836-.858,1.724,1.724,0,0,1,.494-.071,2.2,2.2,0,0,1,.521.066,1.774,1.774,0,0,1,1.039.773c.063.09.125.185.192.291l.048.074,2.178-1.4a.036.036,0,0,0,0-.013.049.049,0,0,0,0-.012v0c0-.013-.008-.024-.012-.033a4.008,4.008,0,0,0-2.214-1.933,5.336,5.336,0,0,0-1.7-.279,5.584,5.584,0,0,0-1.382.177,3.575,3.575,0,0,0-2.8,3.5,3.782,3.782,0,0,0,1.781,3.441,12.819,12.819,0,0,0,1.45.785c.294.142.593.272.88.4.262.113.557.241.835.375a3.559,3.559,0,0,1,.708.446,1.232,1.232,0,0,1,.422,1.36,1.277,1.277,0,0,1-.848.861,2.6,2.6,0,0,1-.987.182,3.811,3.811,0,0,1-.6-.05,2.839,2.839,0,0,1-1.864-1.182c-.067-.089-.13-.18-.2-.275l-.016-.022-.123-.177Zm-9.943.239h0l-2.286,1.383.009.027a.48.48,0,0,0,.019.052,4.2,4.2,0,0,0,2.1,2.086,5.05,5.05,0,0,0,2.051.427,6.27,6.27,0,0,0,1.371-.16,3.383,3.383,0,0,0,2.455-1.94,5.214,5.214,0,0,0,.418-2.265V16c0-.036,0-.074,0-.1l0-.021a.174.174,0,0,1,0-.039h-2.812v2.27c0,1.994,0,4.61,0,7.164a5.568,5.568,0,0,1-.053.751,1.161,1.161,0,0,1-.569.94,1.972,1.972,0,0,1-.854.211,1.694,1.694,0,0,1-.924-.282,2.265,2.265,0,0,1-.662-.753c-.073-.119-.145-.241-.22-.365l-.033-.059Z" transform="translate(9293.999)" fill="#dbe3fd"/>
</svg>
