<svg xmlns="http://www.w3.org/2000/svg" width="58.031" height="31" viewBox="0 0 58.031 31">
  <path id="Subtraction_10" data-name="Subtraction 10" d="M-9265.484,30c-7.617,0-14.777-1.56-20.163-4.394a19.178,19.178,0,0,1-6.111-4.768A9.246,9.246,0,0,1-9294,15a9.246,9.246,0,0,1,2.241-5.838,19.178,19.178,0,0,1,6.111-4.768C-9280.262,1.56-9273.1,0-9265.484,0s14.777,1.56,20.163,4.394a19.189,19.189,0,0,1,6.111,4.768A9.24,9.24,0,0,1-9236.969,15a9.24,9.24,0,0,1-2.241,5.838,19.189,19.189,0,0,1-6.111,4.768C-9250.707,28.44-9257.867,30-9265.484,30Zm8.955-21.941a.313.313,0,0,0-.306.249l-2.919,15.034a.3.3,0,0,0,.063.254.3.3,0,0,0,.239.115h3.273a.314.314,0,0,0,.306-.251l.727-3.748h2.55a10.386,10.386,0,0,0,3.149-.4,6.116,6.116,0,0,0,2.294-1.375,7.124,7.124,0,0,0,1.395-1.748,7.064,7.064,0,0,0,.757-2.1,4.991,4.991,0,0,0-.854-4.426,5.539,5.539,0,0,0-4.377-1.6Zm-25.56,0a.312.312,0,0,0-.3.249l-2.92,15.034a.3.3,0,0,0,.063.254.305.305,0,0,0,.239.115h3.273a.306.306,0,0,0,.3-.251l.73-3.748h2.549a10.4,10.4,0,0,0,3.151-.4,6.122,6.122,0,0,0,2.293-1.375,7.12,7.12,0,0,0,1.394-1.748,7.037,7.037,0,0,0,.757-2.1,4.99,4.99,0,0,0-.854-4.426,5.543,5.543,0,0,0-4.378-1.6Zm16.194,3.042h2.344c.969,0,1.295.2,1.4.313.177.194.207.649.083,1.279l-1.291,6.65a.315.315,0,0,0,.063.256.316.316,0,0,0,.239.112h3.3a.314.314,0,0,0,.306-.249l1.359-7c.295-1.529.054-2.664-.718-3.374-.759-.695-2.06-1.033-3.978-1.033h-2.52l.707-3.63a.318.318,0,0,0-.066-.254.3.3,0,0,0-.239-.112h-3.25a.31.31,0,0,0-.3.249l-2.92,15.032a.3.3,0,0,0,.063.256.314.314,0,0,0,.239.112h3.247a.313.313,0,0,0,.306-.249l1.623-8.361Zm12.947,5.62h-1.616l1.1-5.671h1.99a3.122,3.122,0,0,1,2.258.586,2.481,2.481,0,0,1,.222,2.1,3.678,3.678,0,0,1-1.193,2.3A4.552,4.552,0,0,1-9252.947,16.721Zm-25.56,0h-1.616l1.1-5.671h1.99a3.124,3.124,0,0,1,2.259.586,2.485,2.485,0,0,1,.222,2.1,3.679,3.679,0,0,1-1.194,2.3A4.552,4.552,0,0,1-9278.507,16.721Z" transform="translate(9294.5 0.5)" fill="#dbe3fd" stroke="rgba(0,0,0,0)" stroke-width="1"/>
</svg>
