<svg xmlns="http://www.w3.org/2000/svg" width="58.5" height="24.001" viewBox="0 0 58.5 24.001">
  <g id="Group_4519" data-name="Group 4519" transform="translate(-1130.166 -9369.902)">
    <path id="path12339" d="M1500.475,166.447c2.077,6.375,2.864,17.748,8.939,17.748h0a7.5,7.5,0,0,0,1.4-.135h0c-5.522-1.292-6.176-12.541-9.547-18.367h0q-.395.361-.791.754" transform="translate(-349.912 9208.62)" fill="#dbe3fd"/>
    <path id="path12367" d="M1501.133,165.794c3.371,5.812,4.025,17.035,9.547,18.324h0a8.863,8.863,0,0,0,1.305-.353h0c-4.958-2.432-6.328-13.33-10.154-18.577h0c-.232.193-.465.4-.7.606" transform="translate(-349.793 9208.562)" fill="#dbe3fd"/>
    <path id="path12379" d="M1506.037,162.81a7.525,7.525,0,0,0-1.4.135,10.714,10.714,0,0,0-3.738,1.568,9.248,9.248,0,0,1,.979,1.155,13.419,13.419,0,0,1,3.82-2.328,8.531,8.531,0,0,1,1.425-.4,4.376,4.376,0,0,0-1.086-.133" transform="translate(-349.811 9208.082)" fill="#dbe3fd"/>
    <path id="path12459" d="M1514.856,182c.507-.4,1.016-.85,1.525-1.337-2.112-6.331-2.866-17.84-8.985-17.84a7.255,7.255,0,0,0-1.32.122c5.573,1.387,6.287,13.526,8.779,19.055" transform="translate(-348.873 9208.084)" fill="#dbe3fd"/>
    <path id="path12521" d="M1506.261,162.942a4.437,4.437,0,0,0-1.088-.132l2.406.008a7.111,7.111,0,0,0-1.318.124" transform="translate(-348.99 9208.082)" fill="#dbe3fd"/>
    <path id="path12525" d="M1513.926,180.059a9.031,9.031,0,0,1-.69-.748,12.719,12.719,0,0,1-3.073,1.647,4.742,4.742,0,0,0,1.146.392,4.861,4.861,0,0,0,.976.1,6.389,6.389,0,0,0,2.817-.506,5.32,5.32,0,0,1-1.176-.881" transform="translate(-348.071 9211.368)" fill="#dbe3fd"/>
    <path id="path12553" d="M1504.892,163.318c4.991,2.614,5.425,14.451,9.408,19.257h0c.267-.188.531-.389.8-.6h0c-2.494-5.529-3.207-17.67-8.778-19.056h0a8.526,8.526,0,0,0-1.425.4" transform="translate(-349.092 9208.104)" fill="#dbe3fd"/>
    <path id="Union_11" data-name="Union 11" d="M-9276.324,22.682l.094-.019.076-.021c-.025.007-.054.012-.079.019s-.023.007-.035.007h-.012c-.016.007-.03.007-.049.014a3.388,3.388,0,0,1-1.633-1.574c.039-.048.078-.1.117-.148a13.384,13.384,0,0,1-.929-2.215c.007,0,.007,0,.007-.012a35.066,35.066,0,0,0,3.8-4.383l.032-.1a35.68,35.68,0,0,1-3.907,4.525c1.087-2.472,2.216-6.349,4.079-12.33,1.055-3.392,3.145-5.691,7.581-6l.007-.014c.151-.009.3-.016.457-.023h2.881l0,0h1.813c-6.486,11.6-8.572,19.369-12.7,21.681l-.138.07.156-.077c4.12-2.326,6.21-10.088,12.688-21.676h.571v0h3.069c-7.818,13.991-12.547,22.4-17.232,22.4A1.97,1.97,0,0,1-9276.324,22.682Zm.289-.072-.072.019c-.017.007-.03.007-.047.014a.322.322,0,0,0,.05-.014c.022,0,.049-.012.072-.019l.025-.007Zm.045-.012h0l.074-.023C-9275.939,22.581-9275.965,22.588-9275.99,22.6Zm.158-.049a.21.21,0,0,0-.054.016l-.021.007.022-.007c.017-.007.035-.009.054-.016s.021-.007.03-.012C-9275.809,22.542-9275.82,22.544-9275.832,22.549Zm.17-.061c-.016.007-.032.009-.051.019s-.04.012-.061.019a.041.041,0,0,0-.012.007l.014-.007a.524.524,0,0,0,.063-.019.228.228,0,0,0,.049-.019.2.2,0,0,0,.025-.009A.134.134,0,0,1-9275.662,22.488Zm.065-.021a.556.556,0,0,0,.061-.023h0A.612.612,0,0,1-9275.6,22.467Zm.2-.077a.188.188,0,0,0-.033.012l-.042.019a.392.392,0,0,0,.047-.019c.007,0,.019,0,.03-.012l.2-.086Zm3.041-15.936c-.87,2.794-1.584,5.127-2.206,7.075A82.2,82.2,0,0,0-9267.409.942C-9270.092,1.84-9271.533,3.823-9272.354,6.454Zm-21.832-2.708a13.381,13.381,0,0,1,3.82-2.323c4.989,2.615,5.426,14.452,9.407,19.26a12.7,12.7,0,0,1-3.072,1.644C-9288.99,19.894-9290.359,8.994-9294.187,3.746Z" transform="translate(10446.198 9369.999)" fill="#dbe3fd" stroke="rgba(0,0,0,0)" stroke-width="1"/>
    <path id="Union_13" data-name="Union 13" d="M-9291.714,22.922a44.46,44.46,0,0,1,1.02-5.3s0,0,0-.009c2.295-8.994,6.965-15.129,11.107-16.755-2.062.819-3.669,2.764-5.391,5.722,1.724-2.955,3.331-4.9,5.4-5.719,0,0,.012,0,.023-.012a.731.731,0,0,1,.074-.028.262.262,0,0,0,.035-.014c.028-.009.059-.021.082-.03.061-.016.121-.04.177-.061.01,0,.019-.007.028-.007l.077-.026a.109.109,0,0,0,.037-.009l.077-.023c.012,0,.021-.009.03-.009.084-.023.17-.044.259-.065a.05.05,0,0,0,.035-.009.679.679,0,0,0,.072-.014.109.109,0,0,0,.037-.009c.025,0,.049-.009.077-.016h.019l.156-.028a.048.048,0,0,1,.03-.007c.023,0,.047,0,.072-.012a.045.045,0,0,1,.017,0h-.017c-.025,0-.047,0-.072.012h-.03c-.049.012-.1.019-.156.03h-.019a.477.477,0,0,0-.072.014.068.068,0,0,0-.04.012.416.416,0,0,0-.074.014c-.012,0-.023.007-.035.007-.089.023-.175.044-.259.068a.12.12,0,0,1-.03.009c-.023,0-.052.014-.077.021a.207.207,0,0,0-.035.012c-.025.007-.049.016-.077.023-.012,0-.021.007-.025.007a1.865,1.865,0,0,1-.182.063h0c-.023.009-.054.021-.082.03-.007,0-.014.007-.019.007s-.009.007-.014.007c-.028.012-.052.021-.079.03h0c0,.007-.007.007-.012.007l-.007.007c-4.152,1.626-8.826,7.76-11.119,16.759a.011.011,0,0,1,0,.009,44.978,44.978,0,0,0-1.01,5.3h-1.836c.1-.184.205-.371.306-.553l-.306.55h-.635C-9290.909,10.214-9283.634.4-9278.357.4c.079,0,.158,0,.235.007h6.632l.244,0h2.482a7.5,7.5,0,0,0-1.4.135,10.684,10.684,0,0,0-3.722,1.559l.011.011-.007,0a9.076,9.076,0,0,1,.975,1.15c-.229.191-.459.394-.692.6,0,0,0,0,0,0-.254.233-.508.476-.765.728,0,.009,0,.019.007.026a39.7,39.7,0,0,0-4.084,4.887c-.042.133-.084.266-.129.4-.6,1.9-1.292,4.168-2.134,6.86-1.078,3.471-3.23,5.887-7.88,6.123h-.022a.236.236,0,0,1-.04,0,.283.283,0,0,1-.047,0h-.014c-.059,0-.119,0-.178.012h-.807c-.838,0-1.043.007-1.769.007Zm15.253-18.765q.716-.661,1.435-1.213l0-.005q-.71.543-1.422,1.2A.2.2,0,0,0-9276.461,4.157Zm1.439-1.243c.175-.129.345-.256.513-.376v0l0,0a7.052,7.052,0,0,0-.678-.733c-.049.05-.1.1-.145.156.031.049.062.1.092.149q-.06.073-.12.15Q-9275.18,2.56-9275.021,2.914Zm.274-1.549.006,0a4.979,4.979,0,0,0-2.928-.941c-.083,0-.165,0-.247.006l.058.006c-.042,0-.084.007-.126.009.107,0,.217-.012.324-.012A4.938,4.938,0,0,1-9274.747,1.365Zm-3.279-.919a.07.07,0,0,1-.037.007.364.364,0,0,1-.072.012.068.068,0,0,0-.019,0,.056.056,0,0,1,.019,0,.31.31,0,0,0,.069-.009c.015,0,.023-.007.04-.007l0,.009.107-.007a.018.018,0,0,1-.01,0h-.025a.112.112,0,0,0-.042-.007Z" transform="translate(10424.999 9370.481)" fill="#dbe3fd" stroke="rgba(0,0,0,0)" stroke-width="1"/>
    <path id="path12843" d="M1499.85,163.957c-.094.1-.183.2-.273.306a8.488,8.488,0,0,1,.429.83c.178-.136.356-.266.531-.392a7.063,7.063,0,0,0-.687-.744" transform="translate(-350.035 9208.313)" fill="#dbe3fd"/>
    <path id="path13003" d="M1520.444,168.372c-.927,2.977-1.677,5.434-2.329,7.454h0a81.054,81.054,0,0,0,7.427-13.017h0c-2.78.876-4.263,2.882-5.1,5.563" transform="translate(-346.609 9208.082)" fill="#dbe3fd"/>
    <path id="path13101" d="M1515.743,179.67a4.406,4.406,0,0,1-1.185,1.043c-.094.054-.19.107-.287.154a4.167,4.167,0,0,0,1.508.477h0c.082.008.162.016.248.022h.014a.677.677,0,0,1,.119.007h.4a.1.1,0,0,0,.046-.007.375.375,0,0,0,.089-.007h.043a.927.927,0,0,0,.1-.011h.007c.01,0,.019-.007.029-.007.035-.007.071-.011.1-.016h.03l.117-.019h.018c.078-.014.154-.03.231-.049a3.362,3.362,0,0,1-1.631-1.574" transform="translate(-347.288 9211.441)" fill="#dbe3fd"/>
    <path id="path13105" d="M1507.913,181.169a7.405,7.405,0,0,0,1.4-.136,8.69,8.69,0,0,0,1.305-.352,4.717,4.717,0,0,0,1.144.392,4.875,4.875,0,0,0,.978.1Z" transform="translate(-348.492 9211.646)" fill="#dbe3fd"/>
    <path id="path13109" d="M1511.929,181.172a6.376,6.376,0,0,0,2.815-.506,4.166,4.166,0,0,0,1.508.477h0c.082.008.162.016.248.022h.014a.675.675,0,0,1,.119.007h-4.7Z" transform="translate(-347.741 9211.642)" fill="#dbe3fd"/>
    <path id="path13113" d="M1515.96,181.108h.265a.1.1,0,0,0,.046-.007.391.391,0,0,0,.09-.007h.043a.911.911,0,0,0,.1-.011h.007c.011,0,.02-.007.03-.007.034-.007.07-.01.1-.016a.056.056,0,0,0,.032-.007c.037-.007.077-.011.115-.018h.019c.077-.016.154-.03.231-.049h0a2,2,0,0,0,.707.124l-1.781.008Z" transform="translate(-346.96 9211.706)" fill="#dbe3fd"/>
    <path id="path13117" d="M1515.042,177.7V177.7q-.764.734-1.524,1.341c-.266.21-.53.411-.8.6a8.991,8.991,0,0,0,.69.748,5.351,5.351,0,0,0,1.175.881c.1-.047.193-.1.286-.154a4.412,4.412,0,0,0,1.186-1.043,12.832,12.832,0,0,1-1.016-2.365" transform="translate(-347.581 9211.042)" fill="#dbe3fd"/>
  </g>
</svg>
