<svg id="Group_4520" data-name="Group 4520" xmlns="http://www.w3.org/2000/svg" width="26.557" height="29.951" viewBox="0 0 26.557 29.951">
  <path id="Path_52" data-name="Path 52" d="M1602.669,413.765a2.314,2.314,0,0,1-1.152-.307l-3.662-2.168c-.547-.306-.28-.414-.1-.477a7.343,7.343,0,0,0,1.656-.754.286.286,0,0,1,.273.021l2.814,1.672a.364.364,0,0,0,.341,0l10.973-6.335a.346.346,0,0,0,.167-.3V392.452a.35.35,0,0,0-.17-.3l-10.969-6.33a.341.341,0,0,0-.338,0l-10.967,6.332a.349.349,0,0,0-.173.3v12.665a.337.337,0,0,0,.173.295l3.005,1.736c1.631.816,2.629-.144,2.629-1.11V393.533a.316.316,0,0,1,.319-.317h1.391a.317.317,0,0,1,.319.317v12.505c0,2.178-1.186,3.426-3.249,3.426a4.7,4.7,0,0,1-2.528-.686l-2.878-1.657a2.32,2.32,0,0,1-1.15-2V392.452a2.315,2.315,0,0,1,1.15-2l10.973-6.342a2.4,2.4,0,0,1,2.307,0l10.972,6.342a2.316,2.316,0,0,1,1.153,2v12.665a2.322,2.322,0,0,1-1.153,2l-10.972,6.337A2.311,2.311,0,0,1,1602.669,413.765Z" transform="translate(-1589.393 -383.814)" fill="#dbe3fd"/>
  <path id="Path_53" data-name="Path 53" d="M1601.912,401.575c-4.8,0-5.808-2.2-5.808-4.053a.314.314,0,0,1,.317-.315h1.419a.317.317,0,0,1,.315.268c.214,1.443.853,2.173,3.757,2.173,2.312,0,3.3-.523,3.3-1.749,0-.707-.278-1.233-3.872-1.584-3-.3-4.86-.961-4.86-3.364,0-2.214,1.867-3.534,5-3.534,3.515,0,5.255,1.22,5.475,3.838a.315.315,0,0,1-.316.345h-1.423a.316.316,0,0,1-.309-.248c-.341-1.519-1.173-2-3.427-2-2.524,0-2.818.879-2.818,1.537,0,.8.346,1.031,3.755,1.482,3.372.447,4.975,1.078,4.975,3.448C1607.383,400.206,1605.389,401.575,1601.912,401.575Z" transform="translate(-1585.247 -380.35)" fill="#dbe3fd"/>
</svg>
