<svg xmlns="http://www.w3.org/2000/svg" width="34" height="30" viewBox="0 0 34 30">
  <path id="Swift_logo" d="M25.646,27.924c-4,2.278-9.512,2.512-15.052.174A23.442,23.442,0,0,1,0,19.171,17.9,17.9,0,0,0,3.913,21.52c5.721,2.641,11.442,2.46,15.467.007l-.006-.007A81.437,81.437,0,0,1,5.154,6.954,16.1,16.1,0,0,1,3.245,4.417,110.017,110.017,0,0,0,17.083,14.755,100.641,100.641,0,0,1,7.348,2.725,96.571,96.571,0,0,0,23.383,15.694c.256.142.453.26.612.366a12.233,12.233,0,0,0,.438-1.306C25.769,9.962,24.242,4.511,20.9,0c7.73,4.6,12.312,13.25,10.4,20.487q-.075.293-.162.577l.067.081c3.817,4.7,2.768,9.679,2.29,8.74-2.071-3.99-5.9-2.77-7.853-1.96Z" fill="#dbe3fd"/>
</svg>
