<?xml version="1.0" encoding="UTF-8"?> <svg xmlns="http://www.w3.org/2000/svg" id="Layer_1" data-name="Layer 1" viewBox="0 0 484.35 99.12"><defs><style>.cls-1{fill:#043b4e;}.cls-2{fill:none;stroke:#0546d7;}.cls-3,.cls-4,.cls-5{fill:#0546d7;}.cls-4,.cls-5{fill-rule:evenodd;}.cls-4{opacity:0.63;}</style></defs><path class="cls-1" d="M886.74,557.73l-1.62,1.48a26.45,26.45,0,0,1-18,6.93c-14.5,0-26.24-11.38-26.24-25.52s11.74-25.46,26.24-25.46a26,26,0,0,1,19,7.92l-6.23,6.36a17.63,17.63,0,0,0-12.79-5.23,16.44,16.44,0,0,0,0,32.88,19.78,19.78,0,0,0,13-5.23Z" transform="translate(-701.91 -491.04)"></path><path class="cls-1" d="M893.53,516.29h10l-.07,49.22h-10Z" transform="translate(-701.91 -491.04)"></path><path class="cls-1" d="M929.16,531.49c9.76,0,17.75,7.85,17.75,17.26a17.79,17.79,0,0,1-35.57,0C911.34,539.34,919.33,531.49,929.16,531.49Zm-8.27,17.33a8.26,8.26,0,1,0,8.27-8.77A8.48,8.48,0,0,0,920.89,548.82Z" transform="translate(-701.91 -491.04)"></path><path class="cls-1" d="M976.32,532.13h9.9v16.76c0,6.43-1.27,9.9-4.66,13.22-2.9,2.9-6.37,4.17-11.46,4.17s-8.55-1.27-11.45-4.17c-3.4-3.32-4.67-6.79-4.67-13.22V532.13h9.9v16.48c0,5.16,1.48,8.69,6.22,8.69s6.22-3.53,6.22-8.69Z" transform="translate(-701.91 -491.04)"></path><path class="cls-1" d="M1018.89,533.12v-16.9h10l.07,49.29h-10v-2.13a11.9,11.9,0,0,1-7.14,2.55A17.6,17.6,0,0,1,994,548.61c0-9.41,8.06-17.26,17.82-17.26A13.68,13.68,0,0,1,1018.89,533.12Zm-.21,11.1a7.45,7.45,0,0,0-6.86-4.17,8.57,8.57,0,0,0,0,17.11,7.56,7.56,0,0,0,6.93-4.1Z" transform="translate(-701.91 -491.04)"></path><path class="cls-1" d="M1040,565.51V516.29h13.79c14.77,0,26.16,10.75,26.16,24.61s-11.46,24.61-26.38,24.61Zm9.83-8.84h3.67c10.19,0,16.62-6.08,16.62-15.77s-6.43-15.77-16.26-15.77h-4Z" transform="translate(-701.91 -491.04)"></path><path class="cls-1" d="M1117.24,559.07c-2.83,3.61-9.26,7.07-14.92,7.07a17.61,17.61,0,0,1-17.82-17.39c0-9.41,8.06-17.26,17.82-17.26,10.11,0,17.18,7.85,16.83,19.45l-24.89-.07a8.23,8.23,0,0,0,8.06,6.65,10.24,10.24,0,0,0,7.92-4.18Zm-8-15.06a8.12,8.12,0,0,0-7.5-4.38,7.79,7.79,0,0,0-7,4.38Z" transform="translate(-701.91 -491.04)"></path><path class="cls-1" d="M1132.93,532.34l7.36,19.09,7.35-19.09h10.61L1144,565.51h-7.35l-14.28-33.17Z" transform="translate(-701.91 -491.04)"></path><path class="cls-1" d="M1167.23,554.33c1.34,2.2,3.53,4.25,6.29,4.25,1.41,0,2.76-.64,3-2.12.35-2.06-3.32-3.75-5.37-5.24-2.76-1.91-5.45-3.75-6.65-5.65a8.3,8.3,0,0,1,.71-10,12.52,12.52,0,0,1,9.47-4c5,0,9.12,2.27,10.75,4.46l-5.73,5.94c-1.06-1.49-2.26-2.83-3.89-2.83a2.22,2.22,0,0,0-2.33,2c0,1.13.56,1.91,2.47,3.11,3.54,2.41,8.06,5.31,9.41,8.21a8.63,8.63,0,0,1,.49,6.64c-1.34,4-6.29,7.21-11.81,7.21s-10.39-2.19-13.15-6.08Z" transform="translate(-701.91 -491.04)"></path><circle class="cls-2" cx="119.4" cy="5.97" r="5.47"></circle><path class="cls-3" d="M821,496.51a1.13,1.13,0,0,0,.74-.19.84.84,0,0,0,.22-.64.8.8,0,0,0-.22-.62,1.19,1.19,0,0,0-.74-.19h-.69v1.64H821m-.69,1.13v2.42h-1.65v-6.38h2.51a3.14,3.14,0,0,1,1.85.43,1.52,1.52,0,0,1,.58,1.33,1.71,1.71,0,0,1-.3,1,1.77,1.77,0,0,1-.92.6,1.19,1.19,0,0,1,.6.35,3.05,3.05,0,0,1,.54.82l.9,1.81h-1.75l-.78-1.59a1.79,1.79,0,0,0-.48-.65,1.1,1.1,0,0,0-.64-.18h-.46" transform="translate(-701.91 -491.04)"></path><path class="cls-4" d="M764.27,566.13l-24.36-24.36-2.9,2.9c-11.62,11.62-9.18,31.24,2,42.42l2.16,2.15,23.12-23.11Z" transform="translate(-701.91 -491.04)"></path><path class="cls-5" d="M737.64,491.54l-26.19,26.19a32.79,32.79,0,0,0,0,46.24l23.12,23.12a32.79,32.79,0,0,1,0-46.24l49.31-49.31Z" transform="translate(-701.91 -491.04)"></path><path class="cls-4" d="M766.11,515.57l24.35,24.36,3.31-3.31c11.33-11.33,8.41-31.21-2.39-42l-2.16-2.15-23.11,23.11Z" transform="translate(-701.91 -491.04)"></path><path class="cls-5" d="M792.73,590.16,818.93,564a32.8,32.8,0,0,0,0-46.24l-23.12-23.12a32.8,32.8,0,0,1,0,46.24L746.5,590.16Z" transform="translate(-701.91 -491.04)"></path></svg> 