<?xml version="1.0" encoding="UTF-8"?> <svg xmlns="http://www.w3.org/2000/svg" xmlns:xlink="http://www.w3.org/1999/xlink" width="433px" height="212px" viewBox="0 0 433 212" version="1.1"><!-- Generator: Sketch 50.2 (55047) - http://www.bohemiancoding.com/sketch --><title>Trustpilot stacked</title><desc>Created with Sketch.</desc><defs></defs><g id="Trustpilot-stacked" stroke="none" stroke-width="1" fill="none" fill-rule="evenodd"><g id="Trustpilot_brandmark_gr-wht_RGB" fill-rule="nonzero"><g id="Type" transform="translate(113.242718, 37.584229)" fill="#000000"><path d="M0.26690203,0.230107527 L44.0007061,0.230107527 L44.0007061,8.43727599 L26.8045896,8.43727599 L26.8045896,54.5738351 L17.348632,54.5738351 L17.348632,8.43727599 L0.228773169,8.43727599 L0.228773169,0.230107527 L0.26690203,0.230107527 Z M42.1323919,15.225448 L50.2157105,15.225448 L50.2157105,22.8189964 L50.3682259,22.8189964 C50.635128,21.7451613 51.1308032,20.7096774 51.8552515,19.7125448 C52.5796999,18.7154122 53.4566637,17.7566308 54.486143,16.9512545 C55.5156222,16.1075269 56.6594881,15.4555556 57.9177405,14.918638 C59.1759929,14.4200717 60.4723742,14.1516129 61.7687555,14.1516129 C62.7601059,14.1516129 63.4845543,14.1899642 63.8658429,14.2283154 C64.2471315,14.2666667 64.6284201,14.3433692 65.0478376,14.3817204 L65.0478376,22.7422939 C64.4377758,22.6272401 63.827714,22.5505376 63.1795234,22.4738351 C62.5313327,22.3971326 61.921271,22.3587814 61.3112092,22.3587814 C59.8623124,22.3587814 58.4896734,22.6655914 57.1932921,23.2408602 C55.8969109,23.816129 54.7911739,24.6982079 53.8379523,25.8103943 C52.8847308,26.9609319 52.1221536,28.3415771 51.5502207,30.0290323 C50.9782877,31.7164875 50.7113857,33.6340502 50.7113857,35.8200717 L50.7113857,54.5354839 L42.094263,54.5354839 L42.094263,15.225448 L42.1323919,15.225448 Z M104.663725,54.5738351 L96.1991174,54.5738351 L96.1991174,49.0896057 L96.0466019,49.0896057 C94.9789938,51.083871 93.4157105,52.6562724 91.3186231,53.8451613 C89.2215357,55.0340502 87.0863195,55.6476703 84.9129744,55.6476703 C79.7655781,55.6476703 76.0289497,54.3820789 73.741218,51.8125448 C71.4534863,49.2430108 70.3096205,45.3695341 70.3096205,40.1921147 L70.3096205,15.225448 L78.9267432,15.225448 L78.9267432,39.3483871 C78.9267432,42.8 79.5749338,45.2544803 80.909444,46.6734767 C82.2058252,48.0924731 84.0741395,48.821147 86.4381289,48.821147 C88.2683142,48.821147 89.7553398,48.5526882 90.9754634,47.9774194 C92.1955869,47.4021505 93.1869373,46.6734767 93.9113857,45.7146953 C94.6739629,44.7942652 95.207767,43.6437276 95.5509267,42.3397849 C95.8940865,41.0358423 96.0466019,39.6168459 96.0466019,38.0827957 L96.0466019,15.2637993 L104.663725,15.2637993 L104.663725,54.5738351 Z M119.343336,41.9562724 C119.610238,44.4874552 120.56346,46.2516129 122.203001,47.2870968 C123.880671,48.2842294 125.863372,48.821147 128.189232,48.821147 C128.989938,48.821147 129.905031,48.7444444 130.93451,48.6293907 C131.963989,48.5143369 132.95534,48.2458781 133.832304,47.9007168 C134.747396,47.5555556 135.471845,47.018638 136.081906,46.3283154 C136.653839,45.6379928 136.920741,44.755914 136.882613,43.6437276 C136.844484,42.5315412 136.425066,41.6111111 135.662489,40.9207885 C134.899912,40.1921147 133.94669,39.6551971 132.764695,39.1949821 C131.582701,38.7731183 130.248191,38.3896057 128.723036,38.0827957 C127.197882,37.7759857 125.672727,37.4308244 124.109444,37.0856631 C122.508032,36.7405018 120.944748,36.2802867 119.457723,35.7817204 C117.970697,35.2831541 116.636187,34.5928315 115.454192,33.7107527 C114.272198,32.8670251 113.318976,31.7548387 112.632657,30.4125448 C111.908208,29.0702509 111.565049,27.421147 111.565049,25.4268817 C111.565049,23.2792115 112.098853,21.5150538 113.128332,20.0577061 C114.157811,18.6003584 115.492321,17.4498208 117.055605,16.5677419 C118.657017,15.6856631 120.410944,15.072043 122.355516,14.6885305 C124.300088,14.3433692 126.168402,14.1516129 127.92233,14.1516129 C129.94316,14.1516129 131.887732,14.3817204 133.717917,14.8035842 C135.548102,15.225448 137.225772,15.9157706 138.712798,16.9129032 C140.199823,17.8716846 141.419947,19.137276 142.411297,20.6713262 C143.402648,22.2053763 144.01271,24.0845878 144.279612,26.2706093 L135.2812,26.2706093 C134.861783,24.1996416 133.94669,22.7806452 132.459665,22.0903226 C130.972639,21.3616487 129.25684,21.0164875 127.350397,21.0164875 C126.740335,21.0164875 126.015887,21.0548387 125.177052,21.1698925 C124.338217,21.2849462 123.57564,21.4767025 122.813063,21.7451613 C122.088614,22.0136201 121.478553,22.4354839 120.944748,22.9724014 C120.449073,23.509319 120.182171,24.1996416 120.182171,25.0817204 C120.182171,26.1555556 120.56346,26.9992832 121.287908,27.6512545 C122.012357,28.3032258 122.965578,28.8401434 124.147573,29.3003584 C125.329568,29.7222222 126.664078,30.1057348 128.189232,30.4125448 C129.714387,30.7193548 131.27767,31.0645161 132.879082,31.4096774 C134.442365,31.7548387 135.96752,32.2150538 137.492674,32.7136201 C139.017829,33.2121864 140.352339,33.902509 141.534334,34.7845878 C142.716328,35.6666667 143.66955,36.7405018 144.393998,38.0444444 C145.118447,39.3483871 145.499735,40.997491 145.499735,42.9150538 C145.499735,45.2544803 144.965931,47.2103943 143.898323,48.8594982 C142.830715,50.4702509 141.458076,51.8125448 139.780406,52.8096774 C138.102736,53.80681 136.196293,54.5738351 134.137335,55.0340502 C132.078376,55.4942652 130.019417,55.7243728 127.998588,55.7243728 C125.520212,55.7243728 123.23248,55.455914 121.135393,54.8806452 C119.038305,54.3053763 117.20812,53.4616487 115.682966,52.3494624 C114.157811,51.1989247 112.937688,49.7799283 112.060724,48.0924731 C111.18376,46.4050179 110.726214,44.3724014 110.649956,42.0329749 L119.343336,42.0329749 L119.343336,41.9562724 Z M147.787467,15.225448 L154.307502,15.225448 L154.307502,3.41326165 L162.924625,3.41326165 L162.924625,15.225448 L170.702913,15.225448 L170.702913,21.70681 L162.924625,21.70681 L162.924625,42.7232975 C162.924625,43.6437276 162.962754,44.4107527 163.039011,45.1010753 C163.115269,45.7530466 163.305914,46.3283154 163.572816,46.7885305 C163.839718,47.2487455 164.259135,47.5939068 164.831068,47.8240143 C165.403001,48.0541219 166.127449,48.1691756 167.1188,48.1691756 C167.728861,48.1691756 168.338923,48.1691756 168.948985,48.1308244 C169.559047,48.0924731 170.169109,48.0157706 170.77917,47.8623656 L170.77917,54.5738351 C169.825949,54.6888889 168.872727,54.7655914 167.995763,54.8806452 C167.080671,54.9956989 166.165578,55.0340502 165.212357,55.0340502 C162.924625,55.0340502 161.09444,54.8039427 159.721801,54.3820789 C158.349162,53.9602151 157.243425,53.3082437 156.480847,52.4645161 C155.680141,51.6207885 155.184466,50.5853047 154.879435,49.3197133 C154.612533,48.0541219 154.421889,46.5967742 154.38376,44.9860215 L154.38376,21.7835125 L147.863725,21.7835125 L147.863725,15.225448 L147.787467,15.225448 Z M176.80353,15.225448 L184.963107,15.225448 L184.963107,20.5562724 L185.115622,20.5562724 C186.335746,18.2551971 188.013416,16.6444444 190.186761,15.6473118 C192.360106,14.6501792 194.685966,14.1516129 197.2406,14.1516129 C200.329038,14.1516129 202.998058,14.6885305 205.28579,15.8007168 C207.573522,16.874552 209.479965,18.3702509 211.005119,20.2878136 C212.530274,22.2053763 213.636011,24.4297491 214.398588,26.9609319 C215.161165,29.4921147 215.542454,32.2150538 215.542454,35.0913978 C215.542454,37.7376344 215.199294,40.3071685 214.512974,42.7616487 C213.826655,45.2544803 212.797176,47.4405018 211.424537,49.3580645 C210.051898,51.2756272 208.29797,52.7713262 206.162754,53.9218638 C204.027538,55.0724014 201.549162,55.6476703 198.651368,55.6476703 C197.393116,55.6476703 196.134863,55.5326165 194.876611,55.302509 C193.618358,55.0724014 192.398235,54.6888889 191.254369,54.1903226 C190.110503,53.6917563 189.004766,53.0397849 188.051545,52.2344086 C187.060194,51.4290323 186.259488,50.5086022 185.573169,49.4731183 L185.420653,49.4731183 L185.420653,69.1089606 L176.80353,69.1089606 L176.80353,15.225448 Z M206.925331,34.9379928 C206.925331,33.1738351 206.696558,31.4480287 206.239011,29.7605735 C205.781465,28.0731183 205.095146,26.6157706 204.180053,25.311828 C203.26496,24.0078853 202.121094,22.9724014 200.786584,22.2053763 C199.413945,21.4383513 197.850662,21.0164875 196.096734,21.0164875 C192.474492,21.0164875 189.729214,22.2820789 187.899029,24.8132616 C186.068844,27.3444444 185.153751,30.7193548 185.153751,34.9379928 C185.153751,36.9322581 185.382524,38.7731183 185.878199,40.4605735 C186.373875,42.1480287 187.060194,43.6053763 188.051545,44.8326165 C189.004766,46.0598566 190.148632,47.018638 191.483142,47.7089606 C192.817652,48.4376344 194.380936,48.7827957 196.134863,48.7827957 C198.117564,48.7827957 199.757105,48.3609319 201.129744,47.5555556 C202.502383,46.7501792 203.60812,45.6763441 204.485084,44.4107527 C205.362048,43.10681 206.010238,41.6494624 206.391527,40.0003584 C206.734687,38.3512545 206.925331,36.6637993 206.925331,34.9379928 Z M222.138747,0.230107527 L230.755869,0.230107527 L230.755869,8.43727599 L222.138747,8.43727599 L222.138747,0.230107527 Z M222.138747,15.225448 L230.755869,15.225448 L230.755869,54.5738351 L222.138747,54.5738351 L222.138747,15.225448 Z M238.457899,0.230107527 L247.075022,0.230107527 L247.075022,54.5738351 L238.457899,54.5738351 L238.457899,0.230107527 Z M273.498323,55.6476703 C270.371756,55.6476703 267.58835,55.1107527 265.148102,54.0752688 C262.707855,53.0397849 260.648897,51.5824373 258.933098,49.7799283 C257.255428,47.9390681 255.959047,45.7530466 255.082083,43.2218638 C254.205119,40.690681 253.747573,37.8910394 253.747573,34.8612903 C253.747573,31.8698925 254.205119,29.1086022 255.082083,26.5774194 C255.959047,24.0462366 257.255428,21.8602151 258.933098,20.0193548 C260.610768,18.1784946 262.707855,16.7594982 265.148102,15.7240143 C267.58835,14.6885305 270.371756,14.1516129 273.498323,14.1516129 C276.62489,14.1516129 279.408297,14.6885305 281.848544,15.7240143 C284.288791,16.7594982 286.347749,18.2168459 288.063548,20.0193548 C289.741218,21.8602151 291.037599,24.0462366 291.914563,26.5774194 C292.791527,29.1086022 293.249073,31.8698925 293.249073,34.8612903 C293.249073,37.8910394 292.791527,40.690681 291.914563,43.2218638 C291.037599,45.7530466 289.741218,47.9390681 288.063548,49.7799283 C286.385878,51.6207885 284.288791,53.0397849 281.848544,54.0752688 C279.408297,55.1107527 276.62489,55.6476703 273.498323,55.6476703 Z M273.498323,48.7827957 C275.404766,48.7827957 277.082436,48.3609319 278.493204,47.5555556 C279.903972,46.7501792 281.047838,45.6763441 281.96293,44.3724014 C282.878023,43.0684588 283.526214,41.5727599 283.98376,39.9236559 C284.403177,38.274552 284.631951,36.5870968 284.631951,34.8612903 C284.631951,33.1738351 284.403177,31.5247312 283.98376,29.837276 C283.564342,28.1498208 282.878023,26.6924731 281.96293,25.3885305 C281.047838,24.0845878 279.903972,23.0491039 278.493204,22.2437276 C277.082436,21.4383513 275.404766,21.0164875 273.498323,21.0164875 C271.59188,21.0164875 269.91421,21.4383513 268.503442,22.2437276 C267.092674,23.0491039 265.948808,24.1229391 265.033716,25.3885305 C264.118623,26.6924731 263.470432,28.1498208 263.012886,29.837276 C262.593469,31.5247312 262.364695,33.1738351 262.364695,34.8612903 C262.364695,36.5870968 262.593469,38.274552 263.012886,39.9236559 C263.432304,41.5727599 264.118623,43.0684588 265.033716,44.3724014 C265.948808,45.6763441 267.092674,46.7501792 268.503442,47.5555556 C269.91421,48.3992832 271.59188,48.7827957 273.498323,48.7827957 Z M295.765578,15.225448 L302.285613,15.225448 L302.285613,3.41326165 L310.902736,3.41326165 L310.902736,15.225448 L318.681024,15.225448 L318.681024,21.70681 L310.902736,21.70681 L310.902736,42.7232975 C310.902736,43.6437276 310.940865,44.4107527 311.017123,45.1010753 C311.09338,45.7530466 311.284025,46.3283154 311.550927,46.7885305 C311.817829,47.2487455 312.237246,47.5939068 312.809179,47.8240143 C313.381112,48.0541219 314.10556,48.1691756 315.096911,48.1691756 C315.706973,48.1691756 316.317034,48.1691756 316.927096,48.1308244 C317.537158,48.0924731 318.14722,48.0157706 318.757282,47.8623656 L318.757282,54.5738351 C317.80406,54.6888889 316.850838,54.7655914 315.973875,54.8806452 C315.058782,54.9956989 314.143689,55.0340502 313.190468,55.0340502 C310.902736,55.0340502 309.072551,54.8039427 307.699912,54.3820789 C306.327273,53.9602151 305.221536,53.3082437 304.458959,52.4645161 C303.658252,51.6207885 303.162577,50.5853047 302.857546,49.3197133 C302.590644,48.0541219 302.4,46.5967742 302.361871,44.9860215 L302.361871,21.7835125 L295.841836,21.7835125 L295.841836,15.225448 L295.765578,15.225448 Z" id="Shape"></path></g><g id="Star"><polygon id="Shape" fill="#00B67A" points="103.443601 37.8143369 63.9421006 37.8143369 51.740865 0 39.5015004 37.8143369 0 37.7759857 31.9901147 61.1702509 19.7507502 98.9462366 51.740865 75.5903226 83.6928508 98.9462366 71.4916152 61.1702509 103.443601 37.8143369 103.443601 37.8143369"></polygon><polygon id="Shape" fill="#005128" points="74.2368932 69.7225806 71.4916152 61.1702509 51.740865 75.5903226"></polygon></g></g><g id="Group-4" transform="translate(0.000000, 132.000000)"><polygon id="Fill-1" fill="#00B67A" points="0 79.732 79.732 79.732 79.732 0 0 0"></polygon><path d="M67.899,34.31 L46.546,34.307 L39.95,14 L33.354,34.304 L12,34.301 L29.276,46.856 L22.678,67.164 L39.952,54.615 L50.625,46.861 L67.899,34.31 Z M39.952,54.615 L52.12,51.463 L57.221,67.164 L39.952,54.615 Z" id="Fill-2" fill="#FFFFFF"></path><polygon id="Fill-3" fill="#00B67A" points="88 79.732 167.732 79.732 167.732 0 88 0"></polygon><path d="M155.899,34.31 L134.546,34.307 L127.949,14 L121.353,34.304 L100,34.301 L117.276,46.856 L110.678,67.164 L127.952,54.615 L138.625,46.861 L155.899,34.31 Z M127.952,54.615 L140.12,51.463 L145.22,67.164 L127.952,54.615 Z" id="Fill-4" fill="#FFFFFF"></path><polygon id="Fill-5" fill="#00B67A" points="176 79.732 255.733 79.732 255.733 0 176 0"></polygon><path d="M243.899,34.31 L222.546,34.307 L215.95,14 L209.354,34.304 L188,34.301 L205.276,46.856 L198.679,67.164 L215.952,54.615 L226.625,46.861 L243.899,34.31 Z M215.952,54.615 L228.121,51.463 L233.221,67.164 L215.952,54.615 Z" id="Fill-6" fill="#FFFFFF"></path><polygon id="Fill-7" fill="#00B67A" points="264 79.732 343.732 79.732 343.732 0 264 0"></polygon><path d="M331.899,34.31 L310.545,34.307 L303.949,14 L297.353,34.304 L276,34.301 L293.276,46.856 L286.678,67.164 L303.952,54.615 L314.625,46.861 L331.899,34.31 Z M303.952,54.615 L316.12,51.463 L321.22,67.164 L303.952,54.615 Z" id="Fill-8" fill="#FFFFFF"></path><polygon id="Fill-9" fill="#00B67A" points="352 79.732 431.732 79.732 431.732 0 352 0"></polygon><path d="M419.899,34.31 L398.546,34.307 L391.95,14 L385.353,34.304 L364,34.301 L381.276,46.856 L374.678,67.164 L391.952,54.615 L402.625,46.861 L419.899,34.31 Z M391.952,54.615 L404.12,51.463 L409.22,67.164 L391.952,54.615 Z" id="Fill-10" fill="#FFFFFF"></path></g></g></svg> 